<svg xmlns="http://www.w3.org/2000/svg" height="24" viewBox="0 96 960 960" width="24" fill="#000000"><path d="M480 869.001q-22.087 0-37.544-15.457-15.457-15.457-15.457-37.544V629.001H240q-22.087 0-37.544-15.457-15.457-15.457-15.457-37.544 0-22.087 15.457-37.544 15.457-15.457 37.544-15.457h186.999V336q0-22.087 15.457-37.544 15.457-15.457 37.544-15.457 22.087 0 37.544 15.457 15.457 15.457 15.457 37.544v186.999H720q22.087 0 37.544 15.457 15.457 15.457 15.457 37.544 0 22.087-15.457 37.544-15.457 15.457-37.544 15.457H533.001V816q0 22.087-15.457 37.544-15.457 15.457-37.544 15.457Z"/></svg>