<svg xmlns="http://www.w3.org/2000/svg" height="24" viewBox="0 96 960 960" width="24" fill="#000000"><path d="M480 650.088 293.044 837.044Q278.087 852.001 256 852.001q-22.087 0-37.044-14.957-14.957-14.957-14.957-37.044 0-22.087 14.957-37.044L405.912 576 218.956 389.044Q203.999 374.087 203.999 352q0-22.087 14.957-37.044 14.957-14.957 37.044-14.957 22.087 0 37.044 14.957L480 501.912l186.956-186.956q14.957-14.957 37.044-14.957 22.087 0 37.044 14.957 14.957 14.957 14.957 37.044 0 22.087-14.957 37.044L554.088 576l186.956 186.956q14.957 14.957 14.957 37.044 0 22.087-14.957 37.044-14.957 14.957-37.044 14.957-22.087 0-37.044-14.957L480 650.088Z"/></svg>